<svg width="57" height="28" viewBox="0 0 57 28" fill="none" xmlns="http://www.w3.org/2000/svg">
<path d="M0.958959 0.672728C1.93971 1.38182 8.63063 6.09091 15.8446 11.1636C18.1113 12.7455 19.8766 14.1091 19.7676 14.1818C19.6805 14.2727 18.0241 15.4182 16.1062 16.7636C7.955 22.4182 0.806398 27.4545 0.544863 27.7091C0.283329 27.9818 0.871782 28 6.88707 28H13.5126L16.1062 26.2182C20.6176 23.1273 22.7753 21.6364 28.1149 17.9273C30.9918 15.9273 33.411 14.2545 33.4982 14.1818C33.5854 14.1091 30.5123 11.8545 26.6329 9.16364C22.7535 6.45455 18.2202 3.30909 16.542 2.12727L13.4908 0.0181789L6.7563 0H0L0.958959 0.672728Z" fill="#2563EB"/>
<path d="M27.2065 3.16364C35.7779 10.4727 39.6626 13.8364 39.7161 13.9818C39.7696 14.1455 38.8607 14.9273 29.2202 23.1636C26.5294 25.4545 24.1772 27.4727 23.9811 27.6545C23.6426 28 23.7673 28 29.1845 28H34.7443L38.2549 25.0364C40.1794 23.4182 42.888 21.1273 44.278 19.9636C45.6501 18.8 46.8441 17.8364 46.9332 17.8182C47.0044 17.8182 47.0579 18.8545 47.0579 20.1091C47.0579 21.4364 47.1292 22.3636 47.2183 22.3273C47.3074 22.2909 49.4814 20.4727 52.0475 18.2727C54.6313 16.0727 56.8054 14.2182 56.9301 14.1455C57.0548 14.0545 57.0192 13.9091 56.7697 13.6727C56.0569 13 47.2717 5.63636 47.1648 5.63636C47.1114 5.63636 47.0579 6.65455 47.0579 7.89091C47.0579 9.14545 46.9866 10.2 46.9153 10.2545C46.8262 10.3091 45.6145 9.36364 44.1889 8.14545C42.7811 6.94546 40.6962 5.16364 39.5735 4.2C38.4687 3.23636 36.9006 1.90909 36.0987 1.23636L34.6731 0H29.0776H23.5L27.2065 3.16364Z" fill="#2563EB"/>
</svg>
